<svg xmlns="http://www.w3.org/2000/svg" width="626" height="384.692" viewBox="0 0 626 384.692">
  <g id="PRÓXIMAMENTE_MAPA" data-name="PRÓXIMAMENTE MAPA" transform="translate(-30.908 -232)">
    <g id="BG_Próximamente" data-name="BG Próximamente">
      <path id="Unión_3" data-name="Unión 3" d="M-618.592-5460.308a65,65,0,0,1-65-65v-169a65,65,0,0,1,65-65h149.285v-18.483A67.21,67.21,0,0,1-402.1-5845h56.707a67.209,67.209,0,0,1,67.209,67.209v18.483h155.587a65,65,0,0,1,65,65v169a65,65,0,0,1-65,65Z" transform="translate(714.5 6077)" fill="rgba(210,210,210,0.44)"/>
      <g id="construction_black_24dp" transform="translate(273.932 257.199)">
        <g id="Grupo_107" data-name="Grupo 107" transform="translate(0 0)">
          <rect id="Rectángulo_168" data-name="Rectángulo 168" width="141" height="141" transform="translate(-0.025 0.492)" fill="none"/>
          <rect id="Rectángulo_169" data-name="Rectángulo 169" width="141" height="141" transform="translate(-0.025 0.492)" fill="none"/>
        </g>
        <g id="Grupo_109" data-name="Grupo 109" transform="translate(15.383 15.955)">
          <g id="Grupo_108" data-name="Grupo 108">
            <path id="Trazado_220" data-name="Trazado 220" d="M54.84,41.676,26.215,13.05,13.93,25.335,42.556,53.96a8.639,8.639,0,0,0,12.285,0A8.744,8.744,0,0,0,54.84,41.676Z" transform="translate(52.071 47.432)" fill="#aca7a7"/>
            <path id="Trazado_221" data-name="Trazado 221" d="M90.1,45.421a20.3,20.3,0,0,0,20.281-20.281A20.021,20.021,0,0,0,108,15.868L92.357,31.513l-8.634-8.634L99.369,7.234A20.021,20.021,0,0,0,90.1,4.858,20.3,20.3,0,0,0,69.816,25.139a19.761,19.761,0,0,0,1.217,6.722l-10.72,10.72L50,32.267h0a5.771,5.771,0,0,0,0-8.17l-4.114-4.114L58.169,7.7A17.382,17.382,0,0,0,33.6,7.7L17.258,24.1a5.771,5.771,0,0,0,0,8.17l4.114,4.114H6.654a3.9,3.9,0,0,0-2.9,1.217,4.058,4.058,0,0,0,0,5.795L18.475,58.111a4.058,4.058,0,0,0,5.795,0,4.125,4.125,0,0,0,1.217-2.9V40.5l4.056,4.056a5.771,5.771,0,0,0,8.17,0L48.028,54.866l-36.8,36.8a8.639,8.639,0,0,0,0,12.285h0a8.639,8.639,0,0,0,12.285,0L83.318,44.2A20.358,20.358,0,0,0,90.1,45.421Z" transform="translate(-2.54 -2.613)" fill="#aca7a7"/>
          </g>
        </g>
      </g>
    </g>
    <path id="Trazado_232" data-name="Trazado 232" d="M-227.259-14.85q.432,3.294.864,6.777t.7,6.966q.27,3.483.27,6.669V9.774h-9.126V5.562q0-3.24.27-6.777t.729-6.993q.459-3.456.891-6.642Zm-2.7-14.364a4.653,4.653,0,0,1,3.483,1.242,4.888,4.888,0,0,1,1.215,3.564,4.858,4.858,0,0,1-1.3,3.51,4.5,4.5,0,0,1-3.4,1.35,4.523,4.523,0,0,1-3.429-1.269,4.985,4.985,0,0,1-1.215-3.591,4.786,4.786,0,0,1,1.3-3.456A4.434,4.434,0,0,1-229.959-29.214ZM-218.349,0V-37.8h16.308a12.371,12.371,0,0,1,6.345,1.62,12.147,12.147,0,0,1,4.428,4.428,12.253,12.253,0,0,1,1.647,6.318,13.011,13.011,0,0,1-1.647,6.561A12.385,12.385,0,0,1-195.7-14.31a12.061,12.061,0,0,1-6.345,1.674h-7.128V0Zm9.018-20.682h5.994a4.061,4.061,0,0,0,2.16-.594,4.509,4.509,0,0,0,1.566-1.62,4.656,4.656,0,0,0,.594-2.376,4.476,4.476,0,0,0-.594-2.376,4.2,4.2,0,0,0-1.566-1.512,4.372,4.372,0,0,0-2.16-.54h-5.994ZM-184.221,0V-37.8h17.01a13.746,13.746,0,0,1,6.561,1.566,11.805,11.805,0,0,1,4.617,4.293,11.579,11.579,0,0,1,1.674,6.183,12.346,12.346,0,0,1-1.674,6.4,12,12,0,0,1-4.59,4.455,13.334,13.334,0,0,1-6.588,1.62h-8.262V0Zm20.952,0-9.612-17.064,9.4-1.35L-152.793,0Zm-12.2-20.3h7.452a4.747,4.747,0,0,0,2.457-.621,4.133,4.133,0,0,0,1.62-1.755,5.719,5.719,0,0,0,.567-2.592,4.983,4.983,0,0,0-.648-2.565,4.275,4.275,0,0,0-1.863-1.7,6.651,6.651,0,0,0-2.943-.594h-6.642ZM-131.247.54a20.636,20.636,0,0,1-7.884-1.458,18.689,18.689,0,0,1-6.21-4.1,18.689,18.689,0,0,1-4.1-6.21,20.488,20.488,0,0,1-1.458-7.83,20.488,20.488,0,0,1,1.458-7.83,18.689,18.689,0,0,1,4.1-6.21,18.689,18.689,0,0,1,6.21-4.1,20.488,20.488,0,0,1,7.83-1.458,20.489,20.489,0,0,1,7.83,1.458,18.689,18.689,0,0,1,6.21,4.1,18.349,18.349,0,0,1,4.077,6.21,20.829,20.829,0,0,1,1.431,7.83,20.888,20.888,0,0,1-1.431,7.8,18.287,18.287,0,0,1-4.077,6.237,18.689,18.689,0,0,1-6.21,4.1A20.342,20.342,0,0,1-131.247.54ZM-131.3-8.1a10.115,10.115,0,0,0,4.077-.81,9.581,9.581,0,0,0,3.24-2.3,10.556,10.556,0,0,0,2.133-3.483,12.265,12.265,0,0,0,.756-4.374,12.265,12.265,0,0,0-.756-4.374,10.556,10.556,0,0,0-2.133-3.483,9.581,9.581,0,0,0-3.24-2.3,10.115,10.115,0,0,0-4.077-.81,10.115,10.115,0,0,0-4.077.81,9.867,9.867,0,0,0-3.267,2.3,9.992,9.992,0,0,0-2.133,3.483,12.672,12.672,0,0,0-.729,4.374,12.9,12.9,0,0,0,.729,4.4,9.674,9.674,0,0,0,2.133,3.483,10.059,10.059,0,0,0,3.267,2.268A10.115,10.115,0,0,0-131.3-8.1Zm-4.806-32.292-2-4.32,11.286-6.21,2.97,6.318ZM-85.941,0-97.659-16.956-112.671-37.8h11.178l11.448,16.74L-74.763,0Zm-27,0,14.418-20.574,7.4,4.266L-102.3,0Zm23.76-17.55-7.344-4.1L-85.941-37.8H-75.3ZM-72.441,0V-7.722h6.372V-30.078h-6.372V-37.8h21.978v7.722h-6.426V-7.722h6.426V0Zm29.106,0V-37.8h8.208l13.77,22.41-5.886-.054L-13.311-37.8h7.884V0h-8.91V-11.772q0-4.86.243-8.748t.837-7.722l1.026,2.808L-22.707-9.18h-3.564l-10.26-16.146,1.026-2.916q.594,3.618.837,7.425t.243,9.045V0ZM-2.349,0,12.609-37.8h7.776L35.235,0H25.947L18.819-19.17q-.432-1.134-.864-2.43t-.864-2.673q-.432-1.377-.837-2.7t-.675-2.457l1.62-.054q-.324,1.35-.729,2.646t-.81,2.565q-.4,1.269-.891,2.538t-.918,2.619L6.723,0ZM4.779-7.236l2.862-6.912H25.029l2.808,6.912ZM38.313,0V-37.8h8.208l13.77,22.41-5.886-.054L68.337-37.8h7.884V0h-8.91V-11.772q0-4.86.243-8.748t.837-7.722l1.026,2.808L58.941-9.18H55.377L45.117-25.326l1.026-2.916q.594,3.618.837,7.425t.243,9.045V0ZM84.105,0V-37.8h26.352v7.83H93.015V-7.83H111V0Zm4.32-15.5V-22.95h19.6V-15.5ZM117.315,0V-37.8h8.208l19.818,27-1.782-.27q-.27-1.782-.432-3.4t-.3-3.186q-.135-1.566-.216-3.186t-.108-3.51q-.027-1.89-.027-4.1V-37.8h8.91V0h-8.316L122.391-27.864l2.754.378q.27,2.592.459,4.4t.324,3.213q.135,1.4.189,2.538t.081,2.241q.027,1.107.027,2.457V0Zm50.166,0V-29.7H156.249v-8.1h31.914v8.1h-11.5V0Zm25.542,0V-37.8h26.352v7.83H201.933V-7.83h17.982V0Zm4.32-15.5V-22.95h19.6V-15.5ZM227.1-13.77q-.432-3.294-.864-6.8t-.7-6.966q-.27-3.456-.27-6.642v-4.212h9.126v4.212q0,3.24-.27,6.75t-.7,6.993q-.432,3.483-.918,6.669ZM229.8.594a4.671,4.671,0,0,1-3.456-1.242A4.823,4.823,0,0,1,225.1-4.212a4.858,4.858,0,0,1,1.3-3.51,4.5,4.5,0,0,1,3.4-1.35A4.523,4.523,0,0,1,233.226-7.8a4.985,4.985,0,0,1,1.215,3.591,4.786,4.786,0,0,1-1.3,3.456A4.434,4.434,0,0,1,229.8.594Z" transform="translate(339.907 452.691)" fill="#aca7a7"/>
    <path id="Trazado_233" data-name="Trazado 233" d="M62.838,28V8.4h3.024V25.088h9.184V28Zm21.14.28a5.815,5.815,0,0,1-3.318-1.008,7.226,7.226,0,0,1-2.394-2.744,8.421,8.421,0,0,1-.9-3.92,8.292,8.292,0,0,1,.91-3.934,6.972,6.972,0,0,1,2.464-2.7,6.4,6.4,0,0,1,3.486-.98,6.273,6.273,0,0,1,2.1.336A5.285,5.285,0,0,1,88,14.266a5.369,5.369,0,0,1,1.176,1.386,4.335,4.335,0,0,1,.574,1.68l-.644-.224V13.3h2.912V28H89.1V24.5l.672-.2a3.966,3.966,0,0,1-.686,1.47,5.527,5.527,0,0,1-1.316,1.274,7.13,7.13,0,0,1-1.764.9A6.135,6.135,0,0,1,83.978,28.28Zm.756-2.66a4.222,4.222,0,0,0,2.324-.644A4.437,4.437,0,0,0,88.64,23.2a5.656,5.656,0,0,0,.574-2.59,5.507,5.507,0,0,0-.574-2.548A4.459,4.459,0,0,0,87.058,16.3a4.222,4.222,0,0,0-2.324-.644,4.1,4.1,0,0,0-2.282.644,4.5,4.5,0,0,0-1.568,1.764,5.507,5.507,0,0,0-.574,2.548,5.656,5.656,0,0,0,.574,2.59,4.475,4.475,0,0,0,1.568,1.778A4.1,4.1,0,0,0,84.734,25.62Zm16.212,2.66a8.288,8.288,0,0,1-3.332-.644,6.193,6.193,0,0,1-2.464-1.9l1.96-1.68a5.149,5.149,0,0,0,1.834,1.414,5.58,5.58,0,0,0,2.254.434,3.352,3.352,0,0,0,.938-.126,2.213,2.213,0,0,0,.756-.378,1.684,1.684,0,0,0,.49-.6,1.756,1.756,0,0,0,.168-.77,1.463,1.463,0,0,0-.532-1.176,4.525,4.525,0,0,0-.882-.434,14.3,14.3,0,0,0-1.554-.49,13.075,13.075,0,0,1-2.66-.952,5.039,5.039,0,0,1-1.6-1.2,3.578,3.578,0,0,1-.616-1.162,4.648,4.648,0,0,1-.2-1.386,3.576,3.576,0,0,1,.406-1.694,4.271,4.271,0,0,1,1.12-1.344,5.145,5.145,0,0,1,1.68-.882,6.736,6.736,0,0,1,2.058-.308,7.756,7.756,0,0,1,2.058.28,7.273,7.273,0,0,1,1.89.812,5.632,5.632,0,0,1,1.456,1.26l-1.652,1.82a7.006,7.006,0,0,0-1.162-.938,5.982,5.982,0,0,0-1.274-.63,3.61,3.61,0,0,0-1.176-.224,4.654,4.654,0,0,0-1.064.112,2.313,2.313,0,0,0-.8.336,1.483,1.483,0,0,0-.49.56,1.667,1.667,0,0,0-.168.756,1.917,1.917,0,0,0,.182.686,1.544,1.544,0,0,0,.434.546,4.577,4.577,0,0,0,.924.476,10.71,10.71,0,0,0,1.568.476,13.127,13.127,0,0,1,2.31.8,4.836,4.836,0,0,1,1.442.994,2.9,2.9,0,0,1,.784,1.232,5.131,5.131,0,0,1,.224,1.568,3.768,3.768,0,0,1-.714,2.254,4.8,4.8,0,0,1-1.918,1.554A6.3,6.3,0,0,1,100.946,28.28Zm16.8-.28V8.4H122l10.276,14-.924-.14q-.14-.924-.224-1.764t-.154-1.652q-.07-.812-.112-1.652t-.056-1.82q-.014-.98-.014-2.128V8.4h4.62V28H131.1L120.378,13.552l1.428.2q.14,1.344.238,2.282t.168,1.666q.07.728.1,1.316t.042,1.162q.014.574.014,1.274V28Zm29.12.28a8.33,8.33,0,0,1-4.13-1.008,7.61,7.61,0,0,1-2.856-2.744,7.53,7.53,0,0,1-1.05-3.976,7.53,7.53,0,0,1,1.05-3.976,7.61,7.61,0,0,1,2.856-2.744,8.965,8.965,0,0,1,8.26,0,7.5,7.5,0,0,1,2.842,2.744,7.608,7.608,0,0,1,1.036,3.976,7.608,7.608,0,0,1-1.036,3.976A7.5,7.5,0,0,1,151,27.272,8.33,8.33,0,0,1,146.866,28.28Zm0-3.864a3.241,3.241,0,0,0,1.792-.5,3.508,3.508,0,0,0,1.232-1.372,4.046,4.046,0,0,0,.42-1.988,4.125,4.125,0,0,0-.42-2,3.485,3.485,0,0,0-1.232-1.386,3.241,3.241,0,0,0-1.792-.5,3.311,3.311,0,0,0-1.806.5,3.449,3.449,0,0,0-1.246,1.386,4.125,4.125,0,0,0-.42,2,4.046,4.046,0,0,0,.42,1.988,3.472,3.472,0,0,0,1.246,1.372A3.311,3.311,0,0,0,146.866,24.416ZM159.046,28V9.38h4.48V28Zm-2.632-10.948v-3.92h10v3.92ZM169.21,28V13.132h4.48V28Zm2.24-17.808a2.97,2.97,0,0,1-1.974-.6,2.127,2.127,0,0,1-.714-1.722,2.106,2.106,0,0,1,.728-1.652,2.851,2.851,0,0,1,1.96-.644,2.913,2.913,0,0,1,1.96.6,2.114,2.114,0,0,1,.7,1.694,2.156,2.156,0,0,1-.714,1.68A2.8,2.8,0,0,1,171.45,10.192ZM178.814,28V12.4a5.484,5.484,0,0,1,.63-2.632,4.768,4.768,0,0,1,1.764-1.862,5.012,5.012,0,0,1,2.646-.686,5.994,5.994,0,0,1,1.96.308,5.277,5.277,0,0,1,1.6.868l-1.288,3.276a4.458,4.458,0,0,0-.7-.308,1.962,1.962,0,0,0-.616-.112,1.87,1.87,0,0,0-.84.168,1.02,1.02,0,0,0-.49.518,2.116,2.116,0,0,0-.154.854V28h-4.508Zm-2.156-10.752v-3.7h9.716v3.7ZM189.146,28V13.132h4.48V28Zm2.24-17.808a2.97,2.97,0,0,1-1.974-.6,2.127,2.127,0,0,1-.714-1.722,2.106,2.106,0,0,1,.728-1.652,2.851,2.851,0,0,1,1.96-.644,2.913,2.913,0,0,1,1.96.6,2.114,2.114,0,0,1,.7,1.694,2.156,2.156,0,0,1-.714,1.68A2.8,2.8,0,0,1,191.386,10.192ZM204.35,28.28a7.458,7.458,0,0,1-3.864-1.008,7.37,7.37,0,0,1-2.7-2.758,7.879,7.879,0,0,1-.994-3.962,7.879,7.879,0,0,1,.994-3.962,7.37,7.37,0,0,1,2.7-2.758,7.458,7.458,0,0,1,3.864-1.008,9.339,9.339,0,0,1,3.654.7,6.417,6.417,0,0,1,2.646,1.96L208.214,18.4a5.762,5.762,0,0,0-.924-.84,4.414,4.414,0,0,0-1.176-.616,4.062,4.062,0,0,0-1.344-.224,3.559,3.559,0,0,0-1.876.49,3.34,3.34,0,0,0-1.26,1.358,4.273,4.273,0,0,0-.448,1.988,4.047,4.047,0,0,0,.462,1.932,3.539,3.539,0,0,0,1.274,1.372,3.432,3.432,0,0,0,1.848.5,4.727,4.727,0,0,0,1.344-.182,3.861,3.861,0,0,0,1.134-.546,5.1,5.1,0,0,0,.966-.9l2.408,2.94a6.4,6.4,0,0,1-2.646,1.9A9.4,9.4,0,0,1,204.35,28.28Zm14.224-.028a5.834,5.834,0,0,1-3.346-.994,6.965,6.965,0,0,1-2.338-2.744,8.8,8.8,0,0,1-.868-3.962,8.839,8.839,0,0,1,.868-4,6.86,6.86,0,0,1,2.38-2.73,6.128,6.128,0,0,1,3.444-.994,5.869,5.869,0,0,1,1.946.308,5.113,5.113,0,0,1,1.554.854,5.663,5.663,0,0,1,1.148,1.26,5.255,5.255,0,0,1,.7,1.526l-.924-.112V13.132h4.452V28h-4.536V24.416l1.008-.028a4.772,4.772,0,0,1-.728,1.484A5.51,5.51,0,0,1,222.1,27.1a6.087,6.087,0,0,1-1.624.84A5.817,5.817,0,0,1,218.574,28.252Zm1.232-3.78A3.293,3.293,0,0,0,221.6,24a3.168,3.168,0,0,0,1.176-1.358,4.809,4.809,0,0,0,.42-2.086,4.809,4.809,0,0,0-.42-2.086,3.262,3.262,0,0,0-1.176-1.372,3.222,3.222,0,0,0-1.792-.49,3.1,3.1,0,0,0-1.75.49,3.3,3.3,0,0,0-1.162,1.372,4.808,4.808,0,0,0-.42,2.086,4.809,4.809,0,0,0,.42,2.086,3.059,3.059,0,0,0,2.912,1.834Zm18.256,3.808a7.458,7.458,0,0,1-3.864-1.008,7.37,7.37,0,0,1-2.7-2.758,7.879,7.879,0,0,1-.994-3.962,7.879,7.879,0,0,1,.994-3.962,7.37,7.37,0,0,1,2.7-2.758,7.458,7.458,0,0,1,3.864-1.008,9.339,9.339,0,0,1,3.654.7,6.417,6.417,0,0,1,2.646,1.96L241.926,18.4a5.763,5.763,0,0,0-.924-.84,4.414,4.414,0,0,0-1.176-.616,4.062,4.062,0,0,0-1.344-.224,3.559,3.559,0,0,0-1.876.49,3.34,3.34,0,0,0-1.26,1.358,4.273,4.273,0,0,0-.448,1.988,4.047,4.047,0,0,0,.462,1.932,3.539,3.539,0,0,0,1.274,1.372,3.432,3.432,0,0,0,1.848.5,4.727,4.727,0,0,0,1.344-.182,3.861,3.861,0,0,0,1.134-.546,5.1,5.1,0,0,0,.966-.9l2.408,2.94a6.4,6.4,0,0,1-2.646,1.9A9.4,9.4,0,0,1,238.062,28.28ZM247.05,28V13.132h4.48V28Zm2.24-17.808a2.97,2.97,0,0,1-1.974-.6,2.127,2.127,0,0,1-.714-1.722,2.106,2.106,0,0,1,.728-1.652,2.851,2.851,0,0,1,1.96-.644,2.913,2.913,0,0,1,1.96.6,2.114,2.114,0,0,1,.7,1.694,2.156,2.156,0,0,1-.714,1.68A2.8,2.8,0,0,1,249.29,10.192ZM262.73,28.28a8.33,8.33,0,0,1-4.13-1.008,7.609,7.609,0,0,1-2.856-2.744,7.53,7.53,0,0,1-1.05-3.976,7.53,7.53,0,0,1,1.05-3.976,7.609,7.609,0,0,1,2.856-2.744,8.965,8.965,0,0,1,8.26,0,7.5,7.5,0,0,1,2.842,2.744,7.608,7.608,0,0,1,1.036,3.976,7.608,7.608,0,0,1-1.036,3.976,7.5,7.5,0,0,1-2.842,2.744A8.33,8.33,0,0,1,262.73,28.28Zm0-3.864a3.241,3.241,0,0,0,1.792-.5,3.508,3.508,0,0,0,1.232-1.372,4.046,4.046,0,0,0,.42-1.988,4.125,4.125,0,0,0-.42-2,3.485,3.485,0,0,0-1.232-1.386,3.241,3.241,0,0,0-1.792-.5,3.311,3.311,0,0,0-1.806.5,3.449,3.449,0,0,0-1.246,1.386,4.125,4.125,0,0,0-.42,2,4.046,4.046,0,0,0,.42,1.988,3.472,3.472,0,0,0,1.246,1.372A3.311,3.311,0,0,0,262.73,24.416ZM273.678,28V13.132h4.256l.14,3.024-.9.336a4.527,4.527,0,0,1,1.106-1.834,6.133,6.133,0,0,1,1.918-1.33,5.668,5.668,0,0,1,2.352-.5,5.425,5.425,0,0,1,2.828.686,4.277,4.277,0,0,1,1.736,2.044,8.343,8.343,0,0,1,.588,3.318V28H283.2V19.236a3.786,3.786,0,0,0-.252-1.484,1.789,1.789,0,0,0-.77-.882A2.364,2.364,0,0,0,280.9,16.6a3.192,3.192,0,0,0-1.092.182,2.421,2.421,0,0,0-.868.532,2.673,2.673,0,0,0-.574.8,2.28,2.28,0,0,0-.21.98V28h-4.48Zm24.864.28a8.8,8.8,0,0,1-4.284-.994,7.2,7.2,0,0,1-2.828-2.716,7.641,7.641,0,0,1-1.008-3.934,8.519,8.519,0,0,1,.56-3.136,7.475,7.475,0,0,1,1.568-2.478,6.979,6.979,0,0,1,2.394-1.624,7.863,7.863,0,0,1,3.038-.574,7.189,7.189,0,0,1,2.87.56,6.711,6.711,0,0,1,2.254,1.568,6.873,6.873,0,0,1,1.456,2.38,7.831,7.831,0,0,1,.448,3l-.028,1.2H293.138l-.644-2.52h8.848l-.476.532v-.56a2.5,2.5,0,0,0-.434-1.246,2.6,2.6,0,0,0-.994-.854,3.088,3.088,0,0,0-1.4-.308,3.737,3.737,0,0,0-1.862.434,2.77,2.77,0,0,0-1.162,1.26,4.715,4.715,0,0,0-.392,2.03,4.257,4.257,0,0,0,.518,2.142,3.523,3.523,0,0,0,1.512,1.414,5.175,5.175,0,0,0,2.366.5,4.776,4.776,0,0,0,1.694-.28,6.391,6.391,0,0,0,1.61-.952l2.1,2.968a8.394,8.394,0,0,1-1.848,1.232,9.509,9.509,0,0,1-2,.714A8.926,8.926,0,0,1,298.542,28.28Zm14.336,0a9.873,9.873,0,0,1-3.85-.7,6.786,6.786,0,0,1-2.646-1.876l2.716-2.352a5.426,5.426,0,0,0,1.96,1.274,5.95,5.95,0,0,0,2.072.406,2.665,2.665,0,0,0,.7-.084,1.563,1.563,0,0,0,.518-.238,1.082,1.082,0,0,0,.322-.364,1.026,1.026,0,0,0,.112-.49.966.966,0,0,0-.5-.868,5.442,5.442,0,0,0-.84-.336q-.588-.2-1.512-.448a12.448,12.448,0,0,1-2.282-.8,5.674,5.674,0,0,1-1.582-1.078,4.414,4.414,0,0,1-.868-1.3,4.026,4.026,0,0,1-.308-1.61,3.654,3.654,0,0,1,.49-1.876,4.87,4.87,0,0,1,1.316-1.456,6.049,6.049,0,0,1,1.9-.938,7.736,7.736,0,0,1,2.226-.322,9.664,9.664,0,0,1,2.352.28,9.442,9.442,0,0,1,2.086.784,7.89,7.89,0,0,1,1.722,1.2l-2.352,2.632a6.732,6.732,0,0,0-2.436-1.456,3.924,3.924,0,0,0-1.232-.224,3.517,3.517,0,0,0-.742.07,1.526,1.526,0,0,0-.546.224.969.969,0,0,0-.448.854,1,1,0,0,0,.154.532,1.25,1.25,0,0,0,.434.42,5.012,5.012,0,0,0,.9.378q.616.21,1.68.518a14.344,14.344,0,0,1,2.268.812,4.737,4.737,0,0,1,1.512,1.064,3.119,3.119,0,0,1,.672,1.106,4.025,4.025,0,0,1,.224,1.358,4.22,4.22,0,0,1-.8,2.534,5.342,5.342,0,0,1-2.2,1.736A7.7,7.7,0,0,1,312.878,28.28Zm24.7,0a8.177,8.177,0,0,1-4.018-.966,7.124,7.124,0,0,1-2.744-2.646,7.443,7.443,0,0,1-.994-3.864,8.6,8.6,0,0,1,.56-3.164,7.593,7.593,0,0,1,1.554-2.478,6.835,6.835,0,0,1,2.38-1.624,7.789,7.789,0,0,1,3.01-.574,6.491,6.491,0,0,1,2.66.546,6.669,6.669,0,0,1,2.142,1.5,6.568,6.568,0,0,1,1.4,2.254,7.607,7.607,0,0,1,.462,2.842l-.028,1.232H331.946l-.644-2.3h10.164l-.42.476v-.672a3.244,3.244,0,0,0-.616-1.652,3.819,3.819,0,0,0-3.108-1.568,5.2,5.2,0,0,0-2.548.574,3.7,3.7,0,0,0-1.568,1.68,6.272,6.272,0,0,0-.532,2.73,5.325,5.325,0,0,0,.644,2.674,4.388,4.388,0,0,0,1.82,1.75,5.769,5.769,0,0,0,2.716.616,5.563,5.563,0,0,0,2.03-.364,7.135,7.135,0,0,0,2.03-1.316l1.456,2.044a6.632,6.632,0,0,1-1.638,1.176,10.215,10.215,0,0,1-2.044.8A8.013,8.013,0,0,1,337.574,28.28Zm14.448,0a8.288,8.288,0,0,1-3.332-.644,6.193,6.193,0,0,1-2.464-1.9l1.96-1.68a5.149,5.149,0,0,0,1.834,1.414,5.58,5.58,0,0,0,2.254.434,3.351,3.351,0,0,0,.938-.126,2.213,2.213,0,0,0,.756-.378,1.684,1.684,0,0,0,.49-.6,1.756,1.756,0,0,0,.168-.77,1.463,1.463,0,0,0-.532-1.176,4.525,4.525,0,0,0-.882-.434,14.3,14.3,0,0,0-1.554-.49,13.075,13.075,0,0,1-2.66-.952,5.038,5.038,0,0,1-1.6-1.2,3.578,3.578,0,0,1-.616-1.162,4.649,4.649,0,0,1-.2-1.386A3.576,3.576,0,0,1,347,15.526a4.271,4.271,0,0,1,1.12-1.344,5.145,5.145,0,0,1,1.68-.882,6.736,6.736,0,0,1,2.058-.308,7.756,7.756,0,0,1,2.058.28,7.274,7.274,0,0,1,1.89.812,5.632,5.632,0,0,1,1.456,1.26l-1.652,1.82a7.007,7.007,0,0,0-1.162-.938,5.982,5.982,0,0,0-1.274-.63,3.61,3.61,0,0,0-1.176-.224,4.654,4.654,0,0,0-1.064.112,2.313,2.313,0,0,0-.8.336,1.483,1.483,0,0,0-.49.56,1.667,1.667,0,0,0-.168.756,1.916,1.916,0,0,0,.182.686,1.544,1.544,0,0,0,.434.546,4.576,4.576,0,0,0,.924.476,10.71,10.71,0,0,0,1.568.476,13.127,13.127,0,0,1,2.31.8,4.836,4.836,0,0,1,1.442.994,2.9,2.9,0,0,1,.784,1.232,5.131,5.131,0,0,1,.224,1.568,3.768,3.768,0,0,1-.714,2.254,4.8,4.8,0,0,1-1.918,1.554A6.3,6.3,0,0,1,352.022,28.28ZM362.354,28V9.548h2.884V28ZM359.3,16.1V13.3h9.352v2.8Zm17.5,12.18a5.815,5.815,0,0,1-3.318-1.008,7.226,7.226,0,0,1-2.394-2.744,8.421,8.421,0,0,1-.9-3.92,8.292,8.292,0,0,1,.91-3.934,6.972,6.972,0,0,1,2.464-2.7,6.4,6.4,0,0,1,3.486-.98,6.273,6.273,0,0,1,2.1.336,5.285,5.285,0,0,1,1.666.938A5.37,5.37,0,0,1,382,15.652a4.335,4.335,0,0,1,.574,1.68l-.644-.224V13.3h2.912V28h-2.912V24.5l.672-.2a3.966,3.966,0,0,1-.686,1.47,5.527,5.527,0,0,1-1.316,1.274,7.13,7.13,0,0,1-1.764.9A6.135,6.135,0,0,1,376.8,28.28Zm.756-2.66a4.222,4.222,0,0,0,2.324-.644,4.437,4.437,0,0,0,1.582-1.778,5.657,5.657,0,0,0,.574-2.59,5.507,5.507,0,0,0-.574-2.548,4.459,4.459,0,0,0-1.582-1.764,4.222,4.222,0,0,0-2.324-.644,4.1,4.1,0,0,0-2.282.644,4.5,4.5,0,0,0-1.568,1.764,5.507,5.507,0,0,0-.574,2.548,5.657,5.657,0,0,0,.574,2.59,4.475,4.475,0,0,0,1.568,1.778A4.1,4.1,0,0,0,377.558,25.62ZM388.87,28V13.3h2.912v4.62l-.28-1.12a5.149,5.149,0,0,1,1.05-1.932A5.711,5.711,0,0,1,394.26,13.5a4.275,4.275,0,0,1,2-.5,4.781,4.781,0,0,1,.91.084,3.273,3.273,0,0,1,.686.2l-.756,3.136a4.949,4.949,0,0,0-.742-.238,3.393,3.393,0,0,0-.8-.1,3.623,3.623,0,0,0-1.442.294,3.805,3.805,0,0,0-1.2.812,4.008,4.008,0,0,0-.826,1.2,3.615,3.615,0,0,0-.308,1.5V28Zm16.324.28a5.815,5.815,0,0,1-3.318-1.008,7.226,7.226,0,0,1-2.394-2.744,8.421,8.421,0,0,1-.9-3.92,8.292,8.292,0,0,1,.91-3.934,6.972,6.972,0,0,1,2.464-2.7,6.4,6.4,0,0,1,3.486-.98,6.273,6.273,0,0,1,2.1.336,5.285,5.285,0,0,1,1.666.938,5.37,5.37,0,0,1,1.176,1.386,4.335,4.335,0,0,1,.574,1.68l-.644-.224V13.3h2.912V28h-2.912V24.5l.672-.2a3.966,3.966,0,0,1-.686,1.47,5.527,5.527,0,0,1-1.316,1.274,7.13,7.13,0,0,1-1.764.9A6.135,6.135,0,0,1,405.194,28.28Zm.756-2.66a4.222,4.222,0,0,0,2.324-.644,4.437,4.437,0,0,0,1.582-1.778,5.657,5.657,0,0,0,.574-2.59,5.507,5.507,0,0,0-.574-2.548,4.459,4.459,0,0,0-1.582-1.764,4.222,4.222,0,0,0-2.324-.644,4.1,4.1,0,0,0-2.282.644A4.5,4.5,0,0,0,402.1,18.06a5.507,5.507,0,0,0-.574,2.548,5.657,5.657,0,0,0,.574,2.59,4.475,4.475,0,0,0,1.568,1.778A4.1,4.1,0,0,0,405.95,25.62Zm-1.512-14.588L403.486,9.6l4-3.5,1.82,2.3ZM417.262,28V13.3h2.884v3.024l-.5.336a4.225,4.225,0,0,1,1.092-1.806,6.511,6.511,0,0,1,1.932-1.344,5.827,5.827,0,0,1,5.1.14,4.031,4.031,0,0,1,1.68,2A8.862,8.862,0,0,1,430,19.04V28h-2.884V19.236a5.577,5.577,0,0,0-.336-2.086,2.289,2.289,0,0,0-1.036-1.2,3.24,3.24,0,0,0-1.736-.322,4.3,4.3,0,0,0-1.54.266,3.744,3.744,0,0,0-1.218.742,3.5,3.5,0,0,0-.812,1.106,3.171,3.171,0,0,0-.294,1.358V28h-2.884ZM10.548,64.28a6.62,6.62,0,0,1-3.6-.994A7.108,7.108,0,0,1,4.444,60.57a8.19,8.19,0,0,1-.924-3.934A8.292,8.292,0,0,1,4.43,52.7a7.04,7.04,0,0,1,2.478-2.716,6.5,6.5,0,0,1,3.556-.994,6.48,6.48,0,0,1,2.114.35,6.7,6.7,0,0,1,1.834.952,5.124,5.124,0,0,1,1.274,1.316,2.632,2.632,0,0,1,.462,1.442l-.84.056V43.28h2.884V64H15.308V60.5h.56a2.344,2.344,0,0,1-.448,1.33,5.227,5.227,0,0,1-1.19,1.218,6.185,6.185,0,0,1-1.708.9A5.969,5.969,0,0,1,10.548,64.28Zm.392-2.492a4.092,4.092,0,0,0,2.324-.672,4.6,4.6,0,0,0,1.582-1.834,6.386,6.386,0,0,0,0-5.292,4.6,4.6,0,0,0-1.582-1.834,4.092,4.092,0,0,0-2.324-.672,4.092,4.092,0,0,0-2.324.672A4.6,4.6,0,0,0,7.034,53.99a6.386,6.386,0,0,0,0,5.292,4.6,4.6,0,0,0,1.582,1.834A4.092,4.092,0,0,0,10.94,61.788ZM22.644,64V49.3h2.884V64Zm1.4-17.948a2,2,0,0,1-1.428-.476,1.986,1.986,0,0,1,.014-2.66,1.941,1.941,0,0,1,1.414-.5,2,2,0,0,1,1.428.476,1.986,1.986,0,0,1-.014,2.66A1.941,1.941,0,0,1,24.044,46.052ZM34.852,64.28a8.288,8.288,0,0,1-3.332-.644,6.193,6.193,0,0,1-2.464-1.9l1.96-1.68a5.149,5.149,0,0,0,1.834,1.414A5.58,5.58,0,0,0,35.1,61.9a3.351,3.351,0,0,0,.938-.126A2.213,2.213,0,0,0,36.8,61.4a1.684,1.684,0,0,0,.49-.6,1.756,1.756,0,0,0,.168-.77,1.463,1.463,0,0,0-.532-1.176,4.525,4.525,0,0,0-.882-.434,14.3,14.3,0,0,0-1.554-.49,13.075,13.075,0,0,1-2.66-.952,5.039,5.039,0,0,1-1.6-1.2,3.577,3.577,0,0,1-.616-1.162,4.648,4.648,0,0,1-.2-1.386,3.576,3.576,0,0,1,.406-1.694,4.271,4.271,0,0,1,1.12-1.344,5.145,5.145,0,0,1,1.68-.882,6.736,6.736,0,0,1,2.058-.308,7.756,7.756,0,0,1,2.058.28,7.273,7.273,0,0,1,1.89.812,5.632,5.632,0,0,1,1.456,1.26l-1.652,1.82a7.007,7.007,0,0,0-1.162-.938A5.982,5.982,0,0,0,36,51.6a3.61,3.61,0,0,0-1.176-.224,4.655,4.655,0,0,0-1.064.112,2.313,2.313,0,0,0-.8.336,1.483,1.483,0,0,0-.49.56,1.667,1.667,0,0,0-.168.756,1.916,1.916,0,0,0,.182.686,1.544,1.544,0,0,0,.434.546,4.577,4.577,0,0,0,.924.476,10.71,10.71,0,0,0,1.568.476,13.127,13.127,0,0,1,2.31.8,4.836,4.836,0,0,1,1.442.994,2.9,2.9,0,0,1,.784,1.232,5.131,5.131,0,0,1,.224,1.568,3.768,3.768,0,0,1-.714,2.254A4.8,4.8,0,0,1,37.54,63.72,6.3,6.3,0,0,1,34.852,64.28Zm8.512,5.88V49.3h2.912v3.36l-.448-.252a3.148,3.148,0,0,1,.952-1.61,6.226,6.226,0,0,1,1.918-1.26,5.838,5.838,0,0,1,2.338-.49,6.429,6.429,0,0,1,3.528.98A6.93,6.93,0,0,1,57,52.716a8.314,8.314,0,0,1,.9,3.92,8.445,8.445,0,0,1-.882,3.906,6.907,6.907,0,0,1-2.422,2.716,6.432,6.432,0,0,1-5.964.476,6.732,6.732,0,0,1-2.044-1.33,3.427,3.427,0,0,1-1.036-1.68l.728-.392V70.16Zm7.28-8.568a4.172,4.172,0,0,0,2.3-.644,4.563,4.563,0,0,0,1.6-1.764A5.847,5.847,0,0,0,54.55,54.1a4.483,4.483,0,0,0-1.582-1.75,4.222,4.222,0,0,0-2.324-.644,4.293,4.293,0,0,0-2.324.63,4.458,4.458,0,0,0-1.6,1.75,5.815,5.815,0,0,0,0,5.1,4.563,4.563,0,0,0,1.6,1.764A4.222,4.222,0,0,0,50.644,61.592Zm17,2.688a7.464,7.464,0,0,1-3.85-.994,7.252,7.252,0,0,1-2.674-2.716,8.386,8.386,0,0,1,0-7.868,7.252,7.252,0,0,1,2.674-2.716,7.9,7.9,0,0,1,7.672,0A7.252,7.252,0,0,1,74.136,52.7a8.386,8.386,0,0,1,0,7.868,7.252,7.252,0,0,1-2.674,2.716A7.41,7.41,0,0,1,67.64,64.28Zm0-2.632a4.293,4.293,0,0,0,2.352-.658A4.569,4.569,0,0,0,71.616,59.2a5.253,5.253,0,0,0,.56-2.562,5.317,5.317,0,0,0-.56-2.59,4.467,4.467,0,0,0-1.624-1.778,4.6,4.6,0,0,0-4.718.014,4.533,4.533,0,0,0-1.638,1.792,6.141,6.141,0,0,0,0,5.124,4.533,4.533,0,0,0,1.638,1.792A4.363,4.363,0,0,0,67.64,61.648ZM78.252,64V49.3h2.884v3.024l-.5.336a4.226,4.226,0,0,1,1.092-1.806,6.512,6.512,0,0,1,1.932-1.344,5.828,5.828,0,0,1,5.1.14,4.031,4.031,0,0,1,1.68,2,8.861,8.861,0,0,1,.56,3.388V64H88.108V55.236a5.577,5.577,0,0,0-.336-2.086,2.289,2.289,0,0,0-1.036-1.2A3.239,3.239,0,0,0,85,51.624a4.3,4.3,0,0,0-1.54.266,3.745,3.745,0,0,0-1.218.742,3.5,3.5,0,0,0-.812,1.106,3.171,3.171,0,0,0-.294,1.358V64H78.252Zm17.136,0V49.3h2.884V64Zm1.4-17.948a2,2,0,0,1-1.428-.476,1.986,1.986,0,0,1,.014-2.66,1.941,1.941,0,0,1,1.414-.5,2,2,0,0,1,1.428.476,1.986,1.986,0,0,1-.014,2.66A1.941,1.941,0,0,1,96.788,46.052ZM110.424,64.28a6.025,6.025,0,0,1-1.89-.308,6.9,6.9,0,0,1-1.708-.826A5.948,5.948,0,0,1,105.538,62a3.356,3.356,0,0,1-.686-1.274l.728-.392v3.584H102.7V43.28h2.884v9.38l-.448-.252a3.056,3.056,0,0,1,.616-1.246,5.153,5.153,0,0,1,1.218-1.092,6.958,6.958,0,0,1,1.61-.784,5.465,5.465,0,0,1,1.764-.294,6.429,6.429,0,0,1,3.528.98,6.906,6.906,0,0,1,2.436,2.7,8.4,8.4,0,0,1,.9,3.934,8.594,8.594,0,0,1-.882,3.948,6.885,6.885,0,0,1-2.422,2.73A6.264,6.264,0,0,1,110.424,64.28Zm-.476-2.632a4.107,4.107,0,0,0,2.3-.658,4.646,4.646,0,0,0,1.6-1.792,6,6,0,0,0,.014-5.152,4.437,4.437,0,0,0-1.582-1.778,4.515,4.515,0,0,0-4.648,0,4.539,4.539,0,0,0-1.6,1.778,5.483,5.483,0,0,0-.588,2.562,5.545,5.545,0,0,0,.588,2.59,4.646,4.646,0,0,0,1.6,1.792A4.156,4.156,0,0,0,109.948,61.648ZM120.392,64V43.28h2.884V64Zm13.552.28a8.177,8.177,0,0,1-4.018-.966,7.124,7.124,0,0,1-2.744-2.646,7.444,7.444,0,0,1-.994-3.864,8.6,8.6,0,0,1,.56-3.164,7.594,7.594,0,0,1,1.554-2.478,6.835,6.835,0,0,1,2.38-1.624,7.789,7.789,0,0,1,3.01-.574,6.491,6.491,0,0,1,2.66.546,6.669,6.669,0,0,1,2.142,1.5,6.568,6.568,0,0,1,1.4,2.254,7.608,7.608,0,0,1,.462,2.842l-.028,1.232H128.316l-.644-2.3h10.164l-.42.476v-.672a3.244,3.244,0,0,0-.616-1.652,3.819,3.819,0,0,0-3.108-1.568,5.2,5.2,0,0,0-2.548.574,3.7,3.7,0,0,0-1.568,1.68,6.271,6.271,0,0,0-.532,2.73,5.325,5.325,0,0,0,.644,2.674,4.388,4.388,0,0,0,1.82,1.75,5.769,5.769,0,0,0,2.716.616,5.563,5.563,0,0,0,2.03-.364,7.135,7.135,0,0,0,2.03-1.316l1.456,2.044a6.633,6.633,0,0,1-1.638,1.176,10.214,10.214,0,0,1-2.044.8A8.013,8.013,0,0,1,133.944,64.28Zm14.448,0a8.288,8.288,0,0,1-3.332-.644,6.193,6.193,0,0,1-2.464-1.9l1.96-1.68a5.149,5.149,0,0,0,1.834,1.414,5.58,5.58,0,0,0,2.254.434,3.351,3.351,0,0,0,.938-.126,2.213,2.213,0,0,0,.756-.378,1.684,1.684,0,0,0,.49-.6,1.756,1.756,0,0,0,.168-.77,1.463,1.463,0,0,0-.532-1.176,4.525,4.525,0,0,0-.882-.434,14.3,14.3,0,0,0-1.554-.49,13.075,13.075,0,0,1-2.66-.952,5.039,5.039,0,0,1-1.6-1.2,3.578,3.578,0,0,1-.616-1.162,4.649,4.649,0,0,1-.2-1.386,3.576,3.576,0,0,1,.406-1.694,4.271,4.271,0,0,1,1.12-1.344,5.145,5.145,0,0,1,1.68-.882,6.736,6.736,0,0,1,2.058-.308,7.756,7.756,0,0,1,2.058.28,7.273,7.273,0,0,1,1.89.812,5.632,5.632,0,0,1,1.456,1.26l-1.652,1.82a7.006,7.006,0,0,0-1.162-.938,5.982,5.982,0,0,0-1.274-.63,3.61,3.61,0,0,0-1.176-.224,4.655,4.655,0,0,0-1.064.112,2.313,2.313,0,0,0-.8.336,1.483,1.483,0,0,0-.49.56,1.667,1.667,0,0,0-.168.756,1.916,1.916,0,0,0,.182.686,1.544,1.544,0,0,0,.434.546,4.578,4.578,0,0,0,.924.476,10.71,10.71,0,0,0,1.568.476,13.126,13.126,0,0,1,2.31.8,4.836,4.836,0,0,1,1.442.994,2.9,2.9,0,0,1,.784,1.232,5.131,5.131,0,0,1,.224,1.568A3.768,3.768,0,0,1,153,62.166a4.8,4.8,0,0,1-1.918,1.554A6.3,6.3,0,0,1,148.392,64.28Zm23.212,0a8.177,8.177,0,0,1-4.018-.966,7.124,7.124,0,0,1-2.744-2.646,7.444,7.444,0,0,1-.994-3.864,8.6,8.6,0,0,1,.56-3.164,7.594,7.594,0,0,1,1.554-2.478,6.835,6.835,0,0,1,2.38-1.624,7.789,7.789,0,0,1,3.01-.574,6.491,6.491,0,0,1,2.66.546,6.669,6.669,0,0,1,2.142,1.5,6.568,6.568,0,0,1,1.4,2.254,7.608,7.608,0,0,1,.462,2.842l-.028,1.232H165.976l-.644-2.3H175.5l-.42.476v-.672a3.244,3.244,0,0,0-.616-1.652,3.819,3.819,0,0,0-3.108-1.568,5.2,5.2,0,0,0-2.548.574,3.7,3.7,0,0,0-1.568,1.68,6.271,6.271,0,0,0-.532,2.73,5.325,5.325,0,0,0,.644,2.674,4.388,4.388,0,0,0,1.82,1.75,5.769,5.769,0,0,0,2.716.616,5.563,5.563,0,0,0,2.03-.364,7.135,7.135,0,0,0,2.03-1.316l1.456,2.044a6.633,6.633,0,0,1-1.638,1.176,10.214,10.214,0,0,1-2.044.8A8.013,8.013,0,0,1,171.6,64.28Zm9.548-.28V49.3h2.884v3.024l-.5.336a4.225,4.225,0,0,1,1.092-1.806,6.512,6.512,0,0,1,1.932-1.344,5.828,5.828,0,0,1,5.1.14,4.031,4.031,0,0,1,1.68,2,8.861,8.861,0,0,1,.56,3.388V64h-2.884V55.236a5.577,5.577,0,0,0-.336-2.086,2.289,2.289,0,0,0-1.036-1.2,3.239,3.239,0,0,0-1.736-.322,4.3,4.3,0,0,0-1.54.266,3.745,3.745,0,0,0-1.218.742,3.5,3.5,0,0,0-.812,1.106,3.171,3.171,0,0,0-.294,1.358V64h-2.884Zm24.5,6.16V49.3h2.912v3.36l-.448-.252a3.148,3.148,0,0,1,.952-1.61,6.226,6.226,0,0,1,1.918-1.26,5.838,5.838,0,0,1,2.338-.49,6.429,6.429,0,0,1,3.528.98,6.93,6.93,0,0,1,2.436,2.688,8.314,8.314,0,0,1,.9,3.92,8.445,8.445,0,0,1-.882,3.906,6.907,6.907,0,0,1-2.422,2.716,6.432,6.432,0,0,1-5.964.476,6.733,6.733,0,0,1-2.044-1.33,3.427,3.427,0,0,1-1.036-1.68l.728-.392V70.16Zm7.28-8.568a4.172,4.172,0,0,0,2.3-.644,4.563,4.563,0,0,0,1.6-1.764,5.847,5.847,0,0,0,.014-5.082,4.483,4.483,0,0,0-1.582-1.75,4.222,4.222,0,0,0-2.324-.644,4.293,4.293,0,0,0-2.324.63,4.458,4.458,0,0,0-1.6,1.75,5.815,5.815,0,0,0,0,5.1,4.563,4.563,0,0,0,1.6,1.764A4.222,4.222,0,0,0,212.932,61.592ZM223.32,64V49.3h2.912v4.62l-.28-1.12A5.15,5.15,0,0,1,227,50.868,5.711,5.711,0,0,1,228.71,49.5a4.275,4.275,0,0,1,2-.5,4.781,4.781,0,0,1,.91.084,3.273,3.273,0,0,1,.686.2l-.756,3.136a4.949,4.949,0,0,0-.742-.238,3.393,3.393,0,0,0-.8-.1,3.623,3.623,0,0,0-1.442.294,3.806,3.806,0,0,0-1.2.812,4.008,4.008,0,0,0-.826,1.2,3.615,3.615,0,0,0-.308,1.5V64Zm17.276.28a7.464,7.464,0,0,1-3.85-.994,7.252,7.252,0,0,1-2.674-2.716,8.386,8.386,0,0,1,0-7.868,7.252,7.252,0,0,1,2.674-2.716,7.9,7.9,0,0,1,7.672,0,7.252,7.252,0,0,1,2.674,2.716,8.386,8.386,0,0,1,0,7.868,7.252,7.252,0,0,1-2.674,2.716A7.41,7.41,0,0,1,240.6,64.28Zm0-2.632a4.293,4.293,0,0,0,2.352-.658,4.569,4.569,0,0,0,1.624-1.792,5.253,5.253,0,0,0,.56-2.562,5.317,5.317,0,0,0-.56-2.59,4.467,4.467,0,0,0-1.624-1.778,4.6,4.6,0,0,0-4.718.014,4.533,4.533,0,0,0-1.638,1.792,6.141,6.141,0,0,0,0,5.124,4.533,4.533,0,0,0,1.638,1.792A4.363,4.363,0,0,0,240.6,61.648Zm-1.96-14.616-.952-1.428,4-3.5,1.82,2.3ZM260.42,64l-4.76-6.188-.42-.532-6.188-7.98h3.64l4.676,6.1.476.616,6.1,7.98Zm-11.34,0,5.8-7.56,1.708,2.044L252.5,64Zm8.932-7.112-1.6-2.016,3.612-5.572h3.416ZM266.86,64V49.3h2.884V64Zm1.4-17.948a2,2,0,0,1-1.428-.476,1.986,1.986,0,0,1,.014-2.66,1.941,1.941,0,0,1,1.414-.5,2,2,0,0,1,1.428.476,1.986,1.986,0,0,1-.014,2.66A1.941,1.941,0,0,1,268.26,46.052ZM274.112,64V49.3h2.912v3.136l-.532.336a4.736,4.736,0,0,1,.714-1.4,5.4,5.4,0,0,1,1.2-1.19,6.445,6.445,0,0,1,1.54-.826,4.812,4.812,0,0,1,1.694-.308,5.438,5.438,0,0,1,2.212.42,3.829,3.829,0,0,1,1.568,1.26,5.543,5.543,0,0,1,.9,2.1l-.448-.112.2-.476a4.733,4.733,0,0,1,.854-1.218A6.681,6.681,0,0,1,288.168,50a6.343,6.343,0,0,1,1.484-.7,5.015,5.015,0,0,1,1.54-.252,5.079,5.079,0,0,1,2.73.672,4.1,4.1,0,0,1,1.624,2.044,9.291,9.291,0,0,1,.546,3.416V64H293.18V55.348a5.565,5.565,0,0,0-.322-2.058,2.382,2.382,0,0,0-.966-1.19,3.137,3.137,0,0,0-1.652-.392,4.03,4.03,0,0,0-1.47.266,3.616,3.616,0,0,0-1.19.742,3.415,3.415,0,0,0-.784,1.106,3.374,3.374,0,0,0-.28,1.386V64H283.6V55.292a5.014,5.014,0,0,0-.336-1.946,2.619,2.619,0,0,0-.98-1.218,2.809,2.809,0,0,0-1.568-.42,3.92,3.92,0,0,0-1.456.266,3.781,3.781,0,0,0-1.176.728,3.263,3.263,0,0,0-.784,1.092,3.305,3.305,0,0,0-.28,1.358V64Zm31.5.28a5.815,5.815,0,0,1-3.318-1.008,7.226,7.226,0,0,1-2.394-2.744,8.421,8.421,0,0,1-.9-3.92,8.292,8.292,0,0,1,.91-3.934,6.972,6.972,0,0,1,2.464-2.7,6.4,6.4,0,0,1,3.486-.98,6.273,6.273,0,0,1,2.1.336,5.285,5.285,0,0,1,1.666.938,5.37,5.37,0,0,1,1.176,1.386,4.335,4.335,0,0,1,.574,1.68l-.644-.224V49.3h2.912V64h-2.912V60.5l.672-.2a3.966,3.966,0,0,1-.686,1.47,5.527,5.527,0,0,1-1.316,1.274,7.13,7.13,0,0,1-1.764.9A6.135,6.135,0,0,1,305.612,64.28Zm.756-2.66a4.222,4.222,0,0,0,2.324-.644,4.437,4.437,0,0,0,1.582-1.778,5.657,5.657,0,0,0,.574-2.59,5.507,5.507,0,0,0-.574-2.548,4.459,4.459,0,0,0-1.582-1.764,4.222,4.222,0,0,0-2.324-.644,4.1,4.1,0,0,0-2.282.644,4.5,4.5,0,0,0-1.568,1.764,5.507,5.507,0,0,0-.574,2.548,5.657,5.657,0,0,0,.574,2.59,4.475,4.475,0,0,0,1.568,1.778A4.1,4.1,0,0,0,306.368,61.62Zm16.212,2.66a8.288,8.288,0,0,1-3.332-.644,6.193,6.193,0,0,1-2.464-1.9l1.96-1.68a5.149,5.149,0,0,0,1.834,1.414,5.58,5.58,0,0,0,2.254.434,3.351,3.351,0,0,0,.938-.126,2.213,2.213,0,0,0,.756-.378,1.684,1.684,0,0,0,.49-.6,1.756,1.756,0,0,0,.168-.77,1.463,1.463,0,0,0-.532-1.176,4.525,4.525,0,0,0-.882-.434,14.3,14.3,0,0,0-1.554-.49,13.075,13.075,0,0,1-2.66-.952,5.038,5.038,0,0,1-1.6-1.2,3.578,3.578,0,0,1-.616-1.162,4.649,4.649,0,0,1-.2-1.386,3.576,3.576,0,0,1,.406-1.694,4.271,4.271,0,0,1,1.12-1.344,5.145,5.145,0,0,1,1.68-.882,6.736,6.736,0,0,1,2.058-.308,7.756,7.756,0,0,1,2.058.28,7.273,7.273,0,0,1,1.89.812,5.632,5.632,0,0,1,1.456,1.26l-1.652,1.82A7.008,7.008,0,0,0,325,52.226a5.982,5.982,0,0,0-1.274-.63,3.61,3.61,0,0,0-1.176-.224,4.654,4.654,0,0,0-1.064.112,2.313,2.313,0,0,0-.8.336,1.483,1.483,0,0,0-.49.56,1.667,1.667,0,0,0-.168.756,1.916,1.916,0,0,0,.182.686,1.544,1.544,0,0,0,.434.546,4.576,4.576,0,0,0,.924.476,10.711,10.711,0,0,0,1.568.476,13.127,13.127,0,0,1,2.31.8,4.836,4.836,0,0,1,1.442.994,2.9,2.9,0,0,1,.784,1.232,5.131,5.131,0,0,1,.224,1.568,3.768,3.768,0,0,1-.714,2.254,4.8,4.8,0,0,1-1.918,1.554A6.3,6.3,0,0,1,322.58,64.28ZM343.748,64l-6.216-14.7h3.108l4.48,11-.532.252L349.376,49.3h2.968L345.82,64Zm17.668.28a8.177,8.177,0,0,1-4.018-.966,7.124,7.124,0,0,1-2.744-2.646,7.443,7.443,0,0,1-.994-3.864,8.6,8.6,0,0,1,.56-3.164,7.593,7.593,0,0,1,1.554-2.478,6.835,6.835,0,0,1,2.38-1.624,7.789,7.789,0,0,1,3.01-.574,6.491,6.491,0,0,1,2.66.546,6.669,6.669,0,0,1,2.142,1.5,6.568,6.568,0,0,1,1.4,2.254,7.607,7.607,0,0,1,.462,2.842l-.028,1.232H355.788l-.644-2.3h10.164l-.42.476v-.672a3.244,3.244,0,0,0-.616-1.652,3.819,3.819,0,0,0-3.108-1.568,5.2,5.2,0,0,0-2.548.574,3.7,3.7,0,0,0-1.568,1.68,6.272,6.272,0,0,0-.532,2.73,5.325,5.325,0,0,0,.644,2.674,4.388,4.388,0,0,0,1.82,1.75,5.769,5.769,0,0,0,2.716.616,5.563,5.563,0,0,0,2.03-.364,7.135,7.135,0,0,0,2.03-1.316l1.456,2.044a6.632,6.632,0,0,1-1.638,1.176,10.215,10.215,0,0,1-2.044.8A8.013,8.013,0,0,1,361.416,64.28Zm9.548-.28V49.3h2.912v4.62l-.28-1.12a5.149,5.149,0,0,1,1.05-1.932,5.711,5.711,0,0,1,1.708-1.372,4.275,4.275,0,0,1,2-.5,4.782,4.782,0,0,1,.91.084,3.273,3.273,0,0,1,.686.2l-.756,3.136a4.949,4.949,0,0,0-.742-.238,3.393,3.393,0,0,0-.8-.1,3.623,3.623,0,0,0-1.442.294,3.805,3.805,0,0,0-1.2.812,4.008,4.008,0,0,0-.826,1.2,3.615,3.615,0,0,0-.308,1.5V64Zm16.184.28a8.288,8.288,0,0,1-3.332-.644,6.193,6.193,0,0,1-2.464-1.9l1.96-1.68a5.149,5.149,0,0,0,1.834,1.414,5.58,5.58,0,0,0,2.254.434,3.351,3.351,0,0,0,.938-.126,2.213,2.213,0,0,0,.756-.378,1.684,1.684,0,0,0,.49-.6,1.756,1.756,0,0,0,.168-.77,1.463,1.463,0,0,0-.532-1.176,4.525,4.525,0,0,0-.882-.434,14.3,14.3,0,0,0-1.554-.49,13.075,13.075,0,0,1-2.66-.952,5.038,5.038,0,0,1-1.6-1.2,3.578,3.578,0,0,1-.616-1.162,4.649,4.649,0,0,1-.2-1.386,3.576,3.576,0,0,1,.406-1.694,4.271,4.271,0,0,1,1.12-1.344,5.145,5.145,0,0,1,1.68-.882,6.736,6.736,0,0,1,2.058-.308,7.756,7.756,0,0,1,2.058.28,7.273,7.273,0,0,1,1.89.812,5.632,5.632,0,0,1,1.456,1.26l-1.652,1.82a7.008,7.008,0,0,0-1.162-.938,5.982,5.982,0,0,0-1.274-.63,3.61,3.61,0,0,0-1.176-.224,4.654,4.654,0,0,0-1.064.112,2.313,2.313,0,0,0-.8.336,1.483,1.483,0,0,0-.49.56,1.667,1.667,0,0,0-.168.756,1.916,1.916,0,0,0,.182.686,1.544,1.544,0,0,0,.434.546,4.576,4.576,0,0,0,.924.476,10.711,10.711,0,0,0,1.568.476,13.127,13.127,0,0,1,2.31.8,4.836,4.836,0,0,1,1.442.994,2.9,2.9,0,0,1,.784,1.232,5.131,5.131,0,0,1,.224,1.568,3.768,3.768,0,0,1-.714,2.254,4.8,4.8,0,0,1-1.918,1.554A6.3,6.3,0,0,1,387.148,64.28Zm8.988-.28V49.3h2.884V64Zm1.4-17.948a2,2,0,0,1-1.428-.476,1.986,1.986,0,0,1,.014-2.66,1.941,1.941,0,0,1,1.414-.5,2,2,0,0,1,1.428.476,1.986,1.986,0,0,1-.014,2.66A1.941,1.941,0,0,1,397.536,46.052ZM410.052,64.28a7.464,7.464,0,0,1-3.85-.994,7.252,7.252,0,0,1-2.674-2.716,8.386,8.386,0,0,1,0-7.868,7.252,7.252,0,0,1,2.674-2.716,7.9,7.9,0,0,1,7.672,0,7.252,7.252,0,0,1,2.674,2.716,8.386,8.386,0,0,1,0,7.868,7.252,7.252,0,0,1-2.674,2.716A7.41,7.41,0,0,1,410.052,64.28Zm0-2.632a4.293,4.293,0,0,0,2.352-.658,4.569,4.569,0,0,0,1.624-1.792,5.253,5.253,0,0,0,.56-2.562,5.317,5.317,0,0,0-.56-2.59,4.467,4.467,0,0,0-1.624-1.778,4.6,4.6,0,0,0-4.718.014,4.533,4.533,0,0,0-1.638,1.792,6.141,6.141,0,0,0,0,5.124,4.533,4.533,0,0,0,1.638,1.792A4.363,4.363,0,0,0,410.052,61.648ZM420.664,64V49.3h2.884v3.024l-.5.336a4.225,4.225,0,0,1,1.092-1.806,6.511,6.511,0,0,1,1.932-1.344,5.827,5.827,0,0,1,5.1.14,4.031,4.031,0,0,1,1.68,2,8.862,8.862,0,0,1,.56,3.388V64H430.52V55.236a5.577,5.577,0,0,0-.336-2.086,2.289,2.289,0,0,0-1.036-1.2,3.24,3.24,0,0,0-1.736-.322,4.3,4.3,0,0,0-1.54.266,3.744,3.744,0,0,0-1.218.742,3.5,3.5,0,0,0-.812,1.106,3.171,3.171,0,0,0-.294,1.358V64h-2.884Zm23.52.28a8.177,8.177,0,0,1-4.018-.966,7.124,7.124,0,0,1-2.744-2.646,7.443,7.443,0,0,1-.994-3.864,8.6,8.6,0,0,1,.56-3.164,7.593,7.593,0,0,1,1.554-2.478,6.835,6.835,0,0,1,2.38-1.624,7.789,7.789,0,0,1,3.01-.574,6.491,6.491,0,0,1,2.66.546,6.669,6.669,0,0,1,2.142,1.5,6.568,6.568,0,0,1,1.4,2.254A7.607,7.607,0,0,1,450.6,56.1l-.028,1.232H438.556l-.644-2.3h10.164l-.42.476v-.672a3.244,3.244,0,0,0-.616-1.652,3.819,3.819,0,0,0-3.108-1.568,5.2,5.2,0,0,0-2.548.574,3.7,3.7,0,0,0-1.568,1.68,6.272,6.272,0,0,0-.532,2.73,5.325,5.325,0,0,0,.644,2.674,4.388,4.388,0,0,0,1.82,1.75,5.769,5.769,0,0,0,2.716.616,5.563,5.563,0,0,0,2.03-.364,7.135,7.135,0,0,0,2.03-1.316l1.456,2.044a6.632,6.632,0,0,1-1.638,1.176,10.215,10.215,0,0,1-2.044.8A8.013,8.013,0,0,1,444.184,64.28Zm14.448,0a8.288,8.288,0,0,1-3.332-.644,6.193,6.193,0,0,1-2.464-1.9l1.96-1.68a5.149,5.149,0,0,0,1.834,1.414,5.58,5.58,0,0,0,2.254.434,3.351,3.351,0,0,0,.938-.126,2.213,2.213,0,0,0,.756-.378,1.684,1.684,0,0,0,.49-.6,1.756,1.756,0,0,0,.168-.77,1.463,1.463,0,0,0-.532-1.176,4.525,4.525,0,0,0-.882-.434,14.3,14.3,0,0,0-1.554-.49,13.075,13.075,0,0,1-2.66-.952,5.038,5.038,0,0,1-1.6-1.2,3.578,3.578,0,0,1-.616-1.162,4.649,4.649,0,0,1-.2-1.386,3.576,3.576,0,0,1,.406-1.694,4.271,4.271,0,0,1,1.12-1.344,5.145,5.145,0,0,1,1.68-.882,6.736,6.736,0,0,1,2.058-.308,7.756,7.756,0,0,1,2.058.28,7.273,7.273,0,0,1,1.89.812,5.632,5.632,0,0,1,1.456,1.26l-1.652,1.82a7.008,7.008,0,0,0-1.162-.938,5.982,5.982,0,0,0-1.274-.63,3.61,3.61,0,0,0-1.176-.224,4.654,4.654,0,0,0-1.064.112,2.313,2.313,0,0,0-.8.336,1.483,1.483,0,0,0-.49.56,1.667,1.667,0,0,0-.168.756,1.916,1.916,0,0,0,.182.686,1.544,1.544,0,0,0,.434.546,4.576,4.576,0,0,0,.924.476,10.711,10.711,0,0,0,1.568.476,13.127,13.127,0,0,1,2.31.8,4.836,4.836,0,0,1,1.442.994,2.9,2.9,0,0,1,.784,1.232,5.131,5.131,0,0,1,.224,1.568,3.768,3.768,0,0,1-.714,2.254,4.8,4.8,0,0,1-1.918,1.554A6.3,6.3,0,0,1,458.632,64.28Zm17.528,0a1.846,1.846,0,0,1-1.428-.546,2.208,2.208,0,0,1-.5-1.554,2.167,2.167,0,0,1,.532-1.512,1.8,1.8,0,0,1,1.4-.588,1.847,1.847,0,0,1,1.428.546,2.208,2.208,0,0,1,.5,1.554,2.167,2.167,0,0,1-.532,1.512A1.8,1.8,0,0,1,476.16,64.28Zm0-11.06a1.846,1.846,0,0,1-1.428-.546,2.208,2.208,0,0,1-.5-1.554,2.167,2.167,0,0,1,.532-1.512,1.8,1.8,0,0,1,1.4-.588,1.847,1.847,0,0,1,1.428.546,2.208,2.208,0,0,1,.5,1.554,2.167,2.167,0,0,1-.532,1.512A1.8,1.8,0,0,1,476.16,53.22Zm5.292,15.988-1.54-1.736a13.815,13.815,0,0,0,4.354-4.746,12.566,12.566,0,0,0,0-11.9,13.815,13.815,0,0,0-4.354-4.746l1.568-1.736a14.778,14.778,0,0,1,5.208,5.32,14.93,14.93,0,0,1-.014,14.21A14.858,14.858,0,0,1,481.452,69.208Z" transform="translate(98.407 492.691)" fill="#aca7a7"/>
  </g>
</svg>
